<svg width="80" height="60" viewBox="0 0 80 60" fill="none" xmlns="http://www.w3.org/2000/svg">
<rect y="-0.000976562" width="80" height="60" rx="5.22154" fill="#DADADA"/>
<mask id="mask0_1215_618" style="mask-type:alpha" maskUnits="userSpaceOnUse" x="0" y="-1" width="80" height="61">
<rect y="-0.000976562" width="80" height="60" rx="5.22154" fill="#DADADA"/>
</mask>
<g mask="url(#mask0_1215_618)">
<path d="M15.4286 25.9573C18.2987 21.749 24.5045 21.749 27.3746 25.9573L46.4285 53.8959C49.7015 58.695 46.2645 65.1992 40.4555 65.1992H2.34763C-3.46136 65.1992 -6.89835 58.695 -3.62535 53.8958L15.4286 25.9573Z" fill="#B0B0B0"/>
<path d="M50.5093 21.043C54.019 15.919 61.5802 15.919 65.0899 21.043L93.5334 62.5695C97.5501 68.4338 93.3511 76.3994 86.2431 76.3994H29.3561C22.2482 76.3994 18.0492 68.4337 22.0658 62.5695L50.5093 21.043Z" fill="#7A7A7A"/>
<circle cx="34.0012" cy="13.9992" r="4.8" fill="#7A7A7A"/>
</g>
</svg>
