<svg width="120" height="33" viewBox="0 0 120 33" fill="none" xmlns="http://www.w3.org/2000/svg">
<g clip-path="url(#clip0_291_30)">
<path d="M33.618 1.23137V17.1863C33.618 17.4162 33.5267 17.6368 33.3641 17.7994C33.2014 17.962 32.9809 18.0534 32.7509 18.0534H31.7104C31.4804 18.0534 31.2598 17.962 31.0972 17.7994C30.9346 17.6368 30.8433 17.4162 30.8433 17.1863V1.23137C30.8433 1.0014 30.9346 0.780858 31.0972 0.618242C31.2598 0.455627 31.4804 0.364258 31.7104 0.364258H32.7509C32.9809 0.364258 33.2014 0.455627 33.3641 0.618242C33.5267 0.780858 33.618 1.0014 33.618 1.23137Z" fill="white"/>
<path d="M51.42 1.23137V1.95107C51.42 2.18104 51.3287 2.40161 51.166 2.56422C51.0034 2.72684 50.7829 2.81818 50.5529 2.81818H46.7203C46.4903 2.81818 46.2697 2.90955 46.1071 3.07216C45.9445 3.23478 45.8531 3.45532 45.8531 3.68529V17.1603C45.8531 17.3902 45.7618 17.6108 45.5992 17.7734C45.4366 17.936 45.216 18.0274 44.986 18.0274H43.9281C43.6982 18.0274 43.4776 17.936 43.315 17.7734C43.1524 17.6108 43.061 17.3902 43.061 17.1603V3.68529C43.061 3.45532 42.9697 3.23478 42.8071 3.07216C42.6444 2.90955 42.4239 2.81818 42.1939 2.81818H38.3266C38.0966 2.81818 37.8761 2.72684 37.7134 2.56422C37.5508 2.40161 37.4595 2.18104 37.4595 1.95107V1.23137C37.4595 1.0014 37.5508 0.780858 37.7134 0.618242C37.8761 0.455627 38.0966 0.364258 38.3266 0.364258H50.5529C50.7829 0.364258 51.0034 0.455627 51.166 0.618242C51.3287 0.780858 51.42 1.0014 51.42 1.23137Z" fill="white"/>
<path d="M66.0049 1.29183C67.0063 2.09536 67.6813 3.23567 67.9039 4.50014C67.9376 4.63056 67.9405 4.76704 67.9123 4.89877C67.8842 5.0305 67.8257 5.15386 67.7415 5.25905C67.6574 5.36424 67.5499 5.4484 67.4275 5.50481C67.3052 5.56122 67.1714 5.58833 67.0368 5.58403H65.9616C65.7714 5.59334 65.5834 5.5398 65.4267 5.43167C65.27 5.32353 65.1532 5.16682 65.0944 4.98572C64.8903 4.30616 64.4889 3.70255 63.9412 3.25149C63.1039 2.70683 62.1102 2.45385 61.1144 2.5318C60.2674 2.48125 59.4211 2.64217 58.6518 3.00005C58.3142 3.16773 58.0341 3.43207 57.8473 3.75944C57.6605 4.0868 57.5753 4.46238 57.6026 4.83833C57.6067 5.22348 57.7217 5.59929 57.934 5.92071C58.1462 6.24214 58.4466 6.49555 58.7992 6.6506C59.7443 7.08079 60.7178 7.44584 61.7127 7.74317C63.2529 8.1867 64.7502 8.76709 66.187 9.4774C66.8704 9.85191 67.4385 10.4061 67.8297 11.0801C68.2209 11.7541 68.4205 12.5222 68.4068 13.3014C68.4336 14.0273 68.2853 14.749 67.9744 15.4055C67.6635 16.062 67.1991 16.6341 66.6206 17.0733C65.1199 18.0603 63.3412 18.5377 61.5479 18.4347C59.8113 18.532 58.088 18.0799 56.6227 17.1427C56.0007 16.6753 55.4806 16.0859 55.0945 15.4104C54.7083 14.735 54.4641 13.9878 54.3769 13.2147C54.3566 13.0897 54.364 12.9619 54.3984 12.8401C54.4328 12.7183 54.4934 12.6055 54.5761 12.5097C54.6587 12.4138 54.7613 12.3372 54.8767 12.2852C54.9921 12.2332 55.1175 12.2072 55.244 12.2088H56.3106C56.511 12.2039 56.707 12.2686 56.8651 12.3919C57.0232 12.5152 57.1336 12.6895 57.1777 12.8852C57.328 13.7432 57.7726 14.522 58.435 15.0876C59.3655 15.6663 60.4549 15.9363 61.5479 15.8593C62.5763 15.9059 63.5989 15.6817 64.5135 15.209C64.8365 15.0463 65.1095 14.7992 65.3033 14.4938C65.4972 14.1885 65.6048 13.8363 65.6147 13.4748C65.5927 12.9866 65.4294 12.5153 65.1446 12.1182C64.8598 11.721 64.4658 11.4151 64.0105 11.2376C62.922 10.7917 61.8105 10.4039 60.6808 10.0757C59.337 9.68288 58.0265 9.18417 56.7615 8.58427C56.1394 8.22494 55.6277 7.70187 55.2822 7.07198C54.9367 6.44209 54.7705 5.72951 54.8018 5.01176C54.7768 4.28326 54.94 3.56059 55.2756 2.91355C55.6113 2.2665 56.1081 1.71691 56.7181 1.31785C58.0545 0.410175 59.6478 -0.0428555 61.2618 0.0258541C62.9395 -0.0900954 64.6081 0.35527 66.0049 1.29183Z" fill="white"/>
<path d="M79.6619 0.34668C83.5813 0.34668 85.5438 2.08091 85.5496 5.54937C85.5496 9.01783 83.5639 10.8127 79.6359 10.8127H75.5171C75.2871 10.8127 75.0666 10.9041 74.9039 11.0667C74.7413 11.2293 74.65 11.4499 74.65 11.6798V17.1687C74.65 17.3987 74.5586 17.6192 74.396 17.7818C74.2334 17.9444 74.0128 18.0358 73.7829 18.0358H73.5834C73.3535 18.0358 73.1329 17.9444 72.9703 17.7818C72.8077 17.6192 72.7163 17.3987 72.7163 17.1687V1.21379C72.7163 0.983821 72.8077 0.763253 72.9703 0.600638C73.1329 0.438022 73.3535 0.34668 73.5834 0.34668H79.6619ZM74.6413 8.15071C74.6413 8.38068 74.7327 8.60123 74.8953 8.76384C75.0579 8.92646 75.2784 9.01783 75.5084 9.01783H79.5318C80.6229 9.10319 81.7086 8.79564 82.5927 8.15071C82.9357 7.81469 83.2012 7.40775 83.3704 6.9584C83.5397 6.50906 83.6087 6.02817 83.5726 5.54937C83.6205 5.06805 83.5553 4.58219 83.3822 4.13054C83.2091 3.67889 82.9328 3.27396 82.5754 2.94802C81.699 2.30076 80.6178 1.99273 79.5318 2.08091H75.5084C75.2784 2.08091 75.0579 2.17225 74.8953 2.33487C74.7327 2.49748 74.6413 2.71805 74.6413 2.94802V8.15071Z" fill="white"/>
<path d="M101.929 1.23125C101.929 1.46123 101.838 1.68179 101.675 1.84441C101.513 2.00702 101.292 2.09837 101.062 2.09837H92.6859C92.456 2.09837 92.2354 2.18974 92.0728 2.35235C91.9102 2.51497 91.8188 2.73551 91.8188 2.96548V7.1363C91.8188 7.36627 91.9102 7.58684 92.0728 7.74946C92.2354 7.91207 92.456 8.00342 92.6859 8.00342H100.49C100.72 8.00342 100.94 8.09478 101.103 8.2574C101.266 8.42002 101.357 8.64056 101.357 8.87053C101.357 9.1005 101.266 9.32107 101.103 9.48369C100.94 9.6463 100.72 9.73764 100.49 9.73764H92.6859C92.456 9.73764 92.2354 9.82901 92.0728 9.99163C91.9102 10.1542 91.8188 10.3748 91.8188 10.6048V15.3479C91.8188 15.5779 91.9102 15.7984 92.0728 15.961C92.2354 16.1236 92.456 16.215 92.6859 16.215H101.452C101.682 16.215 101.903 16.3064 102.066 16.469C102.228 16.6316 102.32 16.8521 102.32 17.0821C102.32 17.3121 102.228 17.5326 102.066 17.6953C101.903 17.8579 101.682 17.9492 101.452 17.9492H90.7089C90.4789 17.9492 90.2584 17.8579 90.0958 17.6953C89.9332 17.5326 89.8418 17.3121 89.8418 17.0821V1.1272C89.8418 0.89723 89.9332 0.676662 90.0958 0.514046C90.2584 0.351431 90.4789 0.260088 90.7089 0.260088H101.045C101.17 0.256688 101.293 0.280195 101.408 0.329022C101.523 0.37785 101.626 0.450845 101.71 0.543023C101.794 0.6352 101.857 0.744393 101.895 0.863163C101.933 0.981932 101.944 1.10748 101.929 1.23125Z" fill="white"/>
<path d="M114.225 0.346949C115.665 0.26169 117.088 0.69205 118.24 1.5609C118.76 2.02606 119.169 2.60322 119.435 3.24901C119.701 3.8948 119.817 4.59242 119.774 5.28949C119.781 6.21649 119.506 7.1236 118.985 7.89083C118.422 8.66732 117.597 9.21279 116.661 9.42564V9.47767C117.418 9.61787 118.103 10.0159 118.599 10.6039C119.096 11.192 119.373 11.9339 119.384 12.7033L119.653 15.4347C119.691 15.9306 119.79 16.42 119.948 16.8915C119.993 17.0257 120.005 17.169 119.983 17.3088C119.96 17.4487 119.903 17.5809 119.818 17.6938C119.732 17.8067 119.62 17.897 119.492 17.9567C119.363 18.0163 119.222 18.0436 119.081 18.0361H118.933C118.764 18.0391 118.597 17.9923 118.453 17.9013C118.31 17.8104 118.196 17.6793 118.127 17.5245C117.887 16.9361 117.746 16.312 117.711 15.6775L117.494 13.3277C117.491 12.8948 117.393 12.4679 117.207 12.0769C117.021 11.6859 116.752 11.3404 116.419 11.0645C115.691 10.5851 114.825 10.3595 113.956 10.4228H109.672C109.442 10.4228 109.222 10.5142 109.059 10.6768C108.897 10.8394 108.805 11.06 108.805 11.2899V17.1516C108.805 17.3816 108.714 17.6022 108.551 17.7648C108.389 17.9274 108.168 18.0188 107.938 18.0188H107.782C107.552 18.0188 107.332 17.9274 107.169 17.7648C107.006 17.6022 106.915 17.3816 106.915 17.1516V1.1967C106.915 0.966731 107.006 0.74619 107.169 0.583574C107.332 0.420959 107.552 0.32959 107.782 0.32959L114.225 0.346949ZM108.814 7.80411C108.814 8.03409 108.905 8.25466 109.068 8.41727C109.231 8.57989 109.451 8.67123 109.681 8.67123H113.965C115.01 8.72986 116.041 8.4028 116.861 7.75209C117.165 7.4326 117.399 7.05324 117.548 6.63819C117.698 6.22314 117.759 5.78151 117.728 5.34151C117.763 4.89854 117.704 4.45317 117.554 4.0347C117.405 3.61623 117.169 3.23416 116.861 2.9136C116.018 2.29579 114.98 2.00324 113.939 2.08983H109.655C109.425 2.08983 109.205 2.1812 109.042 2.34382C108.879 2.50643 108.788 2.72697 108.788 2.95695L108.814 7.80411Z" fill="white"/>
<path d="M72.7854 25.1202L72.5773 24.8427C72.552 24.8106 72.5382 24.7709 72.5382 24.73C72.5382 24.6891 72.552 24.6494 72.5773 24.6173C73.0168 24.1357 73.3637 23.5772 73.6005 22.9697C73.6159 22.9315 73.6445 22.9001 73.681 22.881C73.7176 22.8619 73.7597 22.8565 73.7999 22.8657L74.1034 22.9351C74.1275 22.9396 74.1503 22.9495 74.1701 22.964C74.1899 22.9785 74.2062 22.9972 74.2179 23.0188C74.2295 23.0404 74.2362 23.0644 74.2374 23.0889C74.2386 23.1134 74.2343 23.1379 74.2248 23.1605C74.2248 23.2472 74.1641 23.3339 74.1294 23.412C74.1198 23.4377 74.1164 23.4654 74.1196 23.4927C74.1227 23.52 74.1323 23.5461 74.1475 23.569C74.1628 23.5918 74.1832 23.6107 74.2072 23.6242C74.2312 23.6376 74.258 23.6451 74.2855 23.6461H76.6527C76.6987 23.6461 76.7428 23.6643 76.7754 23.6969C76.8079 23.7294 76.8261 23.7735 76.8261 23.8195V24.123C76.8261 24.169 76.8079 24.2131 76.7754 24.2456C76.7428 24.2781 76.6987 24.2964 76.6527 24.2964H75.5081C75.4644 24.2964 75.4225 24.3138 75.3916 24.3447C75.3607 24.3756 75.3434 24.4175 75.3434 24.4612C75.3434 24.678 75.3434 24.8861 75.2827 25.0942C75.2815 25.1181 75.2851 25.142 75.2932 25.1645C75.3013 25.1871 75.3137 25.2078 75.3298 25.2255C75.3459 25.2432 75.3654 25.2576 75.387 25.2678C75.4087 25.278 75.4322 25.2838 75.4561 25.2849H76.9302C76.9526 25.2837 76.9749 25.2872 76.9959 25.2949C77.0169 25.3027 77.0361 25.3146 77.0523 25.33C77.0686 25.3454 77.0815 25.364 77.0903 25.3846C77.0991 25.4052 77.1037 25.4273 77.1036 25.4497V25.7792C77.1036 25.8252 77.0854 25.8693 77.0528 25.9018C77.0203 25.9343 76.9762 25.9526 76.9302 25.9526H75.248C75.2103 25.9535 75.1738 25.9654 75.1429 25.987C75.112 26.0087 75.0883 26.0389 75.0746 26.074C75.0623 26.1121 75.0644 26.1534 75.0804 26.1901C75.0963 26.2268 75.1251 26.2564 75.1613 26.2734C75.7223 26.5648 76.2588 26.9012 76.7655 27.2793C76.7828 27.2963 76.7965 27.3165 76.8059 27.3388C76.8153 27.3612 76.8201 27.3851 76.8201 27.4094C76.8201 27.4336 76.8153 27.4576 76.8059 27.4799C76.7965 27.5022 76.7828 27.5225 76.7655 27.5394L76.514 27.7909C76.4816 27.8227 76.438 27.8405 76.3926 27.8405C76.3472 27.8405 76.3036 27.8227 76.2712 27.7909C75.8581 27.4291 75.4142 27.1042 74.9445 26.8197C74.9254 26.8075 74.9039 26.7993 74.8815 26.7957C74.8591 26.7921 74.8362 26.7932 74.8142 26.7989C74.7922 26.8046 74.7716 26.8148 74.7538 26.8288C74.7359 26.8428 74.7211 26.8604 74.7104 26.8804C74.2493 27.5512 73.6178 28.087 72.8808 28.4326C72.8443 28.4507 72.8026 28.4555 72.7629 28.446C72.7233 28.4365 72.6883 28.4133 72.664 28.3805L72.4125 28.0684C72.3954 28.0487 72.3832 28.0252 72.3769 27.9999C72.3706 27.9746 72.3705 27.9482 72.3764 27.9228C72.3823 27.8974 72.3942 27.8738 72.411 27.8539C72.4278 27.8339 72.4492 27.8183 72.4732 27.8082C73.2439 27.4804 73.8821 26.9033 74.2855 26.1694C74.2974 26.1438 74.3026 26.1155 74.3004 26.0873C74.2982 26.0592 74.2889 26.032 74.2732 26.0085C74.2575 25.985 74.2361 25.9659 74.2109 25.9531C74.1857 25.9402 74.1577 25.9341 74.1294 25.9353H72.612C72.5896 25.9353 72.5674 25.9308 72.5469 25.922C72.5263 25.9131 72.5077 25.9002 72.4923 25.884C72.4769 25.8678 72.4649 25.8486 72.4572 25.8276C72.4494 25.8066 72.446 25.7842 72.4472 25.7619V25.4323C72.446 25.4104 72.4494 25.3884 72.4572 25.3678C72.465 25.3473 72.4771 25.3286 72.4927 25.3131C72.5082 25.2975 72.5269 25.2854 72.5475 25.2776C72.568 25.2697 72.59 25.2663 72.612 25.2676H74.4416C74.4834 25.2681 74.524 25.2534 74.5559 25.2263C74.5877 25.1992 74.6087 25.1615 74.615 25.1202C74.615 24.9034 74.667 24.6866 74.6844 24.4612C74.6856 24.4377 74.6819 24.4142 74.6737 24.3921C74.6656 24.3701 74.653 24.3499 74.6368 24.3329C74.6205 24.3159 74.601 24.3023 74.5794 24.2931C74.5578 24.2838 74.5345 24.279 74.5109 24.2791H73.7912C73.7621 24.2786 73.7333 24.2856 73.7075 24.2992C73.6818 24.3128 73.6599 24.3328 73.6438 24.3571C73.4704 24.6308 73.27 24.8865 73.0455 25.1202C73.0286 25.1375 73.0083 25.1512 72.986 25.1606C72.9637 25.17 72.9397 25.1748 72.9155 25.1748C72.8912 25.1748 72.8673 25.17 72.8449 25.1606C72.8226 25.1512 72.8023 25.1375 72.7854 25.1202ZM79.8697 32.2305H79.5055C79.4832 32.2317 79.4608 32.2283 79.4398 32.2206C79.4188 32.2128 79.3996 32.2009 79.3834 32.1855C79.3672 32.17 79.3542 32.1515 79.3454 32.1309C79.3366 32.1103 79.3321 32.0882 79.3321 32.0658V31.953C79.3321 31.9303 79.3276 31.9077 79.3189 31.8867C79.3102 31.8656 79.2974 31.8465 79.2813 31.8304C79.2652 31.8143 79.2461 31.8015 79.2251 31.7928C79.204 31.7841 79.1815 31.7796 79.1587 31.7796H74.6584C74.6124 31.7796 74.5683 31.7979 74.5357 31.8304C74.5032 31.8629 74.4849 31.907 74.4849 31.953V32.0658C74.485 32.0882 74.4804 32.1103 74.4716 32.1309C74.4628 32.1515 74.4499 32.17 74.4337 32.1855C74.4174 32.2009 74.3982 32.2128 74.3772 32.2206C74.3562 32.2283 74.3339 32.2317 74.3115 32.2305H73.9647C73.9423 32.2317 73.92 32.2283 73.899 32.2206C73.878 32.2128 73.8588 32.2009 73.8425 32.1855C73.8263 32.17 73.8134 32.1515 73.8046 32.1309C73.7957 32.1103 73.7912 32.0882 73.7912 32.0658V28.2158C73.7912 28.1698 73.8095 28.1257 73.842 28.0932C73.8746 28.0606 73.9187 28.0424 73.9647 28.0424H79.8784C79.9244 28.0424 79.9685 28.0606 80.001 28.0932C80.0335 28.1257 80.0518 28.1698 80.0518 28.2158V32.0658C80.0454 32.108 80.0228 32.1461 79.9888 32.1719C79.9548 32.1978 79.9121 32.2095 79.8697 32.2045V32.2305ZM79.3321 29.4471V28.8661C79.3321 28.8433 79.3276 28.8208 79.3189 28.7997C79.3102 28.7787 79.2974 28.7596 79.2813 28.7435C79.2652 28.7274 79.2461 28.7146 79.2251 28.7059C79.204 28.6972 79.1815 28.6927 79.1587 28.6927H74.6584C74.6124 28.6927 74.5683 28.711 74.5357 28.7435C74.5032 28.776 74.4849 28.8201 74.4849 28.8661V29.4471C74.4849 29.4695 74.4894 29.4916 74.4983 29.5122C74.5071 29.5328 74.52 29.5513 74.5362 29.5668C74.5524 29.5822 74.5716 29.5941 74.5926 29.6019C74.6136 29.6096 74.636 29.613 74.6584 29.6118H79.1674C79.2111 29.6118 79.253 29.5945 79.2839 29.5636C79.3148 29.5327 79.3321 29.4908 79.3321 29.4471ZM79.3321 30.9559V30.4703C79.3321 30.4475 79.3276 30.425 79.3189 30.4039C79.3102 30.3829 79.2974 30.3638 79.2813 30.3477C79.2652 30.3315 79.2461 30.3188 79.2251 30.3101C79.204 30.3013 79.1815 30.2968 79.1587 30.2968H74.6584C74.6124 30.2968 74.5683 30.3151 74.5357 30.3477C74.5032 30.3802 74.4849 30.4243 74.4849 30.4703V30.9992C74.4849 31.0452 74.5032 31.0893 74.5357 31.1219C74.5683 31.1544 74.6124 31.1726 74.6584 31.1726H79.1674C79.1936 31.1722 79.2193 31.1658 79.2427 31.1539C79.266 31.142 79.2864 31.125 79.3023 31.1042C79.3181 31.0833 79.329 31.0591 79.3342 31.0334C79.3394 31.0078 79.3387 30.9812 79.3321 30.9559ZM80.7368 23.7675V27.1406C80.7368 27.1866 80.7186 27.2307 80.686 27.2632C80.6535 27.2957 80.6094 27.314 80.5634 27.314H77.6933C77.6473 27.314 77.6032 27.2957 77.5706 27.2632C77.5381 27.2307 77.5198 27.1866 77.5198 27.1406V23.7675C77.5198 23.7215 77.5381 23.6774 77.5706 23.6448C77.6032 23.6123 77.6473 23.5941 77.6933 23.5941H80.5634C80.6094 23.5941 80.6535 23.6123 80.686 23.6448C80.7186 23.6774 80.7368 23.7215 80.7368 23.7675ZM79.8697 24.2444H78.3696C78.3236 24.2444 78.2795 24.2627 78.247 24.2952C78.2145 24.3277 78.1962 24.3718 78.1962 24.4178V26.4902C78.1962 26.5362 78.2145 26.5803 78.247 26.6129C78.2795 26.6454 78.3236 26.6636 78.3696 26.6636H79.8697C79.9157 26.6636 79.9598 26.6454 79.9924 26.6129C80.0249 26.5803 80.0431 26.5362 80.0431 26.4902V24.4005C80.039 24.359 80.0201 24.3204 79.9898 24.2917C79.9596 24.2631 79.92 24.2463 79.8784 24.2444H79.8697Z" fill="white"/>
<path d="M94.0128 25.6494V25.9876C94.0206 26.016 94.0206 26.0459 94.0128 26.0743C93.7354 26.5731 93.4224 27.0512 93.0763 27.505C93.057 27.5308 93.0452 27.5614 93.0423 27.5935C93.0395 27.6256 93.0456 27.6578 93.06 27.6866C93.0744 27.7154 93.0965 27.7397 93.1239 27.7566C93.1513 27.7735 93.1829 27.7825 93.2151 27.7825H93.9088C93.9311 27.7813 93.9535 27.7847 93.9745 27.7925C93.9955 27.8002 94.0147 27.8122 94.0309 27.8276C94.0471 27.843 94.0601 27.8616 94.0689 27.8821C94.0777 27.9027 94.0822 27.9249 94.0822 27.9473V28.2681C93.9807 28.9109 93.8329 29.5456 93.64 30.1671C93.6268 30.2002 93.6248 30.2367 93.6342 30.2711C93.6435 30.3055 93.6638 30.3359 93.692 30.3578L93.8567 30.4966C94.1298 30.7778 94.4496 31.0096 94.8019 31.1816C95.2219 31.3305 95.6657 31.401 96.1112 31.3897H97.9408C98.5738 31.3897 99.3889 31.3897 100.386 31.3464C100.413 31.3455 100.44 31.3509 100.464 31.3622C100.489 31.3735 100.51 31.3903 100.527 31.4113C100.544 31.4324 100.556 31.4571 100.561 31.4834C100.567 31.5098 100.566 31.5371 100.56 31.5631L100.481 31.91C100.473 31.9474 100.453 31.9809 100.423 32.0046C100.392 32.0284 100.355 32.0409 100.317 32.04H98.0276C97.2905 32.04 96.6402 32.04 96.0679 32.04C95.5458 32.0492 95.0272 31.9549 94.5418 31.7626C94.1204 31.581 93.7443 31.3086 93.4405 30.9648C93.4092 30.929 93.3705 30.9004 93.3271 30.8809C93.2837 30.8615 93.2366 30.8516 93.1891 30.8521C92.9723 30.8521 92.6601 31.225 92.2612 31.9707C92.2485 31.9936 92.2307 32.0133 92.2093 32.0283C92.1878 32.0434 92.1632 32.0533 92.1373 32.0575C92.1115 32.0617 92.085 32.0599 92.0599 32.0524C92.0348 32.0449 92.0117 32.0317 91.9924 32.014L91.7583 31.7972C91.7358 31.7672 91.7236 31.7307 91.7236 31.6932C91.7236 31.6557 91.7358 31.6192 91.7583 31.5891C91.9871 31.0285 92.3879 30.5549 92.9029 30.2365C92.9244 30.2277 92.9439 30.2148 92.9603 30.1984C92.9766 30.182 92.9896 30.1625 92.9983 30.1411C93.1812 29.6425 93.3205 29.129 93.4145 28.6063C93.4198 28.5819 93.4194 28.5567 93.4135 28.5325C93.4076 28.5083 93.3963 28.4858 93.3805 28.4666C93.3646 28.4474 93.3446 28.4321 93.322 28.4217C93.2993 28.4114 93.2746 28.4063 93.2497 28.4068H92.1745C92.1285 28.4068 92.0844 28.3886 92.0519 28.356C92.0194 28.3235 92.0011 28.2794 92.0011 28.2334V27.8692C91.9923 27.8322 91.9923 27.7935 92.0011 27.7565C92.3731 27.3136 92.7121 26.8441 93.0156 26.3518C93.0334 26.3268 93.0438 26.2974 93.0458 26.2669C93.0477 26.2363 93.0411 26.2058 93.0267 26.1788C93.0123 26.1518 92.9907 26.1293 92.9642 26.1139C92.9377 26.0985 92.9075 26.0908 92.8769 26.0916H91.9144C91.8684 26.0916 91.8243 26.0734 91.7918 26.0408C91.7592 26.0083 91.741 25.9642 91.741 25.9182V25.6147C91.741 25.5687 91.7592 25.5246 91.7918 25.4921C91.8243 25.4596 91.8684 25.4413 91.9144 25.4413H93.77C93.8006 25.426 93.8349 25.4201 93.8688 25.4242C93.9027 25.4284 93.9346 25.4424 93.9606 25.4647C93.9865 25.4869 94.0053 25.5163 94.0146 25.5491C94.0239 25.582 94.0233 25.6169 94.0128 25.6494ZM93.8827 24.5568L93.666 24.7823C93.6498 24.7993 93.6303 24.8129 93.6087 24.8222C93.587 24.8315 93.5638 24.8363 93.5402 24.8363C93.5167 24.8363 93.4934 24.8315 93.4718 24.8222C93.4502 24.8129 93.4307 24.7993 93.4145 24.7823C93.0258 24.3655 92.6022 23.9826 92.1485 23.6377C92.1301 23.6214 92.1153 23.6014 92.1052 23.579C92.095 23.5565 92.0898 23.5322 92.0898 23.5076C92.0898 23.483 92.095 23.4587 92.1052 23.4363C92.1153 23.4139 92.1301 23.3938 92.1485 23.3776L92.3653 23.1608C92.3967 23.1339 92.4367 23.1191 92.478 23.1191C92.5194 23.1191 92.5593 23.1339 92.5907 23.1608C93.0573 23.5191 93.4924 23.9165 93.8914 24.3487C93.9165 24.3768 93.9318 24.4123 93.9349 24.4499C93.9381 24.4874 93.9289 24.525 93.9088 24.5568H93.8827ZM96.6835 26.6813V26.9848C96.6835 27.0308 96.7018 27.0749 96.7343 27.1074C96.7668 27.1399 96.811 27.1582 96.8569 27.1582H98.0969C98.1429 27.1582 98.187 27.1399 98.2195 27.1074C98.2521 27.0749 98.2703 27.0308 98.2703 26.9848V26.6813C98.2703 26.6353 98.2886 26.5912 98.3211 26.5586C98.3537 26.5261 98.3978 26.5078 98.4438 26.5078H98.7299C98.7759 26.5078 98.82 26.5261 98.8525 26.5586C98.8851 26.5912 98.9033 26.6353 98.9033 26.6813V26.9848C98.9033 27.0308 98.9216 27.0749 98.9541 27.1074C98.9867 27.1399 99.0308 27.1582 99.0768 27.1582H99.9786C100.025 27.1582 100.069 27.1765 100.101 27.209C100.134 27.2415 100.152 27.2856 100.152 27.3316V27.6091C100.152 27.6551 100.134 27.6992 100.101 27.7317C100.069 27.7642 100.025 27.7825 99.9786 27.7825H99.1114C99.0891 27.7813 99.0667 27.7847 99.0457 27.7925C99.0247 27.8002 99.0055 27.8122 98.9893 27.8276C98.9731 27.843 98.9602 27.8616 98.9513 27.8821C98.9425 27.9027 98.938 27.9249 98.938 27.9473V28.5196C98.938 28.5655 98.9563 28.6097 98.9888 28.6422C99.0213 28.6747 99.0655 28.693 99.1114 28.693H100.325C100.348 28.693 100.37 28.6975 100.391 28.7063C100.411 28.7151 100.43 28.728 100.445 28.7442C100.46 28.7605 100.472 28.7797 100.48 28.8007C100.488 28.8217 100.491 28.844 100.49 28.8664V29.1526C100.491 29.1745 100.488 29.1965 100.48 29.217C100.472 29.2376 100.46 29.2563 100.445 29.2718C100.429 29.2874 100.41 29.2995 100.39 29.3073C100.369 29.3152 100.347 29.3186 100.325 29.3173H94.7065C94.6841 29.3185 94.6618 29.3151 94.6408 29.3073C94.6198 29.2996 94.6006 29.2876 94.5844 29.2722C94.5681 29.2568 94.5552 29.2382 94.5464 29.2177C94.5376 29.1971 94.5331 29.1749 94.5331 29.1526V28.8664C94.5331 28.8204 94.5514 28.7763 94.5839 28.7438C94.6164 28.7112 94.6605 28.693 94.7065 28.693H95.9205C95.9665 28.693 96.0106 28.6747 96.0431 28.6422C96.0756 28.6097 96.0939 28.5655 96.0939 28.5196V27.9473C96.0939 27.9249 96.0894 27.9027 96.0806 27.8821C96.0718 27.8616 96.0588 27.843 96.0426 27.8276C96.0264 27.8122 96.0072 27.8002 95.9862 27.7925C95.9652 27.7847 95.9428 27.7813 95.9205 27.7825H94.9666C94.9206 27.7825 94.8765 27.7642 94.844 27.7317C94.8115 27.6992 94.7932 27.6551 94.7932 27.6091V27.3316C94.7932 27.2856 94.8115 27.2415 94.844 27.209C94.8765 27.1765 94.9206 27.1582 94.9666 27.1582H95.9205C95.9665 27.1582 96.0106 27.1399 96.0431 27.1074C96.0756 27.0749 96.0939 27.0308 96.0939 26.9848V26.6813C96.0939 26.6353 96.1122 26.5912 96.1447 26.5586C96.1772 26.5261 96.2213 26.5078 96.2673 26.5078H96.5101C96.5561 26.5078 96.6002 26.5261 96.6327 26.5586C96.6653 26.5912 96.6835 26.6353 96.6835 26.6813ZM94.6198 26.1263C94.603 26.0973 94.5942 26.0644 94.5942 26.0309C94.5942 25.9975 94.603 25.9645 94.6198 25.9355C94.6552 25.9025 94.6829 25.8621 94.7008 25.8171C94.7188 25.7721 94.7267 25.7238 94.7238 25.6754V23.4036C94.7238 23.3576 94.7421 23.3135 94.7746 23.281C94.8072 23.2484 94.8513 23.2301 94.8973 23.2301H96.987C97.033 23.2301 97.0771 23.2484 97.1096 23.281C97.1422 23.3135 97.1604 23.3576 97.1604 23.4036V24.817C97.1604 24.863 97.1422 24.9071 97.1096 24.9396C97.0771 24.9721 97.033 24.9904 96.987 24.9904H95.4956C95.4736 24.9891 95.4516 24.9925 95.4311 25.0004C95.4105 25.0082 95.3918 25.0203 95.3763 25.0359C95.3607 25.0514 95.3486 25.0701 95.3408 25.0906C95.333 25.1112 95.3296 25.1332 95.3308 25.1551V25.6494C95.3307 25.6737 95.3357 25.6978 95.3455 25.72C95.3553 25.7423 95.3696 25.7622 95.3876 25.7786C95.4056 25.7949 95.4268 25.8073 95.4499 25.815C95.473 25.8226 95.4974 25.8253 95.5216 25.8228C96.0245 25.7708 96.5188 25.7014 97.0044 25.6234C97.0249 25.6183 97.0462 25.6174 97.0671 25.6208C97.088 25.6242 97.1079 25.6318 97.1258 25.6432C97.1436 25.6545 97.159 25.6694 97.1709 25.6869C97.1828 25.7043 97.191 25.724 97.1951 25.7448L97.2471 25.9269C97.2535 25.9503 97.255 25.9748 97.2513 25.9987C97.2476 26.0227 97.239 26.0457 97.2259 26.0661C97.2129 26.0865 97.1956 26.104 97.1754 26.1173C97.1552 26.1307 97.1323 26.1397 97.1084 26.1437C96.4378 26.2477 95.6921 26.3518 94.8713 26.4558C94.8337 26.4607 94.7956 26.4532 94.7627 26.4344C94.7298 26.4156 94.704 26.3866 94.6892 26.3518L94.6198 26.1263ZM96.8049 29.9416C96.3159 30.3496 95.7768 30.6934 95.2008 30.9648C95.1643 30.983 95.1225 30.9878 95.0829 30.9782C95.0433 30.9687 95.0082 30.9456 94.984 30.9128L94.8106 30.6787C94.7969 30.6573 94.7878 30.6334 94.7838 30.6084C94.7799 30.5833 94.7813 30.5578 94.7878 30.5333C94.7943 30.5088 94.8059 30.486 94.8217 30.4662C94.8376 30.4464 94.8574 30.4302 94.8799 30.4185C95.4183 30.1906 95.9277 29.8995 96.3974 29.5514C96.4288 29.5246 96.4688 29.5098 96.5101 29.5098C96.5514 29.5098 96.5914 29.5246 96.6228 29.5514L96.8049 29.7162C96.8336 29.7467 96.8495 29.787 96.8495 29.8289C96.8495 29.8708 96.8336 29.9111 96.8049 29.9416ZM96.5968 24.3054V23.9412C96.5968 23.8952 96.5785 23.8511 96.546 23.8186C96.5135 23.786 96.4694 23.7678 96.4234 23.7678H95.5563C95.5339 23.7677 95.5117 23.7723 95.4912 23.7811C95.4706 23.7899 95.452 23.8028 95.4366 23.819C95.4212 23.8353 95.4092 23.8545 95.4015 23.8755C95.3937 23.8965 95.3903 23.9188 95.3915 23.9412V24.3054C95.3903 24.3277 95.3937 24.3501 95.4015 24.3711C95.4092 24.3921 95.4212 24.4113 95.4366 24.4275C95.452 24.4437 95.4706 24.4567 95.4912 24.4655C95.5117 24.4743 95.5339 24.4788 95.5563 24.4788H96.4234C96.4694 24.4788 96.5135 24.4605 96.546 24.428C96.5785 24.3955 96.5968 24.3514 96.5968 24.3054ZM98.2703 28.5196V27.9473C98.2704 27.9249 98.2658 27.9027 98.257 27.8821C98.2482 27.8616 98.2353 27.843 98.2191 27.8276C98.2028 27.8122 98.1836 27.8002 98.1626 27.7925C98.1416 27.7847 98.1193 27.7813 98.0969 27.7825H96.8569C96.8346 27.7813 96.8122 27.7847 96.7912 27.7925C96.7702 27.8002 96.751 27.8122 96.7348 27.8276C96.7186 27.843 96.7057 27.8616 96.6968 27.8821C96.688 27.9027 96.6835 27.9249 96.6835 27.9473V28.5196C96.6835 28.5655 96.7018 28.6097 96.7343 28.6422C96.7668 28.6747 96.811 28.693 96.8569 28.693H98.0969C98.1383 28.6867 98.176 28.6657 98.2031 28.6338C98.2302 28.602 98.2448 28.5614 98.2443 28.5196H98.2703ZM98.2703 25.4673C98.2703 25.6407 98.3657 25.7274 98.5825 25.7274H100.126C100.172 25.7274 100.216 25.7457 100.249 25.7783C100.281 25.8108 100.299 25.8549 100.299 25.9009V26.1003C100.299 26.1463 100.281 26.1904 100.249 26.2229C100.216 26.2554 100.172 26.2737 100.126 26.2737H98.279C97.8715 26.2737 97.672 26.0916 97.672 25.7361V23.4036C97.672 23.3576 97.6903 23.3135 97.7228 23.281C97.7553 23.2484 97.7995 23.2301 97.8455 23.2301H99.9786C100.025 23.2301 100.069 23.2484 100.101 23.281C100.134 23.3135 100.152 23.3576 100.152 23.4036V24.8083C100.152 24.8307 100.147 24.8529 100.139 24.8734C100.13 24.894 100.117 24.9125 100.101 24.928C100.084 24.9434 100.065 24.9553 100.044 24.9631C100.023 24.9708 100.001 24.9742 99.9786 24.9731H98.4698C98.4238 24.9731 98.3797 24.9913 98.3472 25.0238C98.3146 25.0564 98.2964 25.1005 98.2964 25.1465L98.2703 25.4673ZM100.187 30.67L100.031 30.9215C100.018 30.9416 100.001 30.9588 99.9805 30.972C99.9605 30.9853 99.938 30.9942 99.9144 30.9983C99.8907 31.0024 99.8665 31.0015 99.8432 30.9957C99.82 30.99 99.7981 30.9794 99.7791 30.9648C99.2677 30.574 98.7118 30.2451 98.1229 29.985C98.1007 29.9742 98.081 29.9589 98.0652 29.9399C98.0494 29.9209 98.0378 29.8988 98.0313 29.875C98.0247 29.8512 98.0233 29.8262 98.0271 29.8018C98.031 29.7774 98.04 29.7541 98.0536 29.7335L98.1836 29.5341C98.2051 29.5005 98.238 29.4758 98.2763 29.4647C98.3146 29.4535 98.3556 29.4566 98.3917 29.4734C98.9991 29.7383 99.5799 30.0605 100.126 30.4359C100.149 30.4448 100.169 30.4587 100.186 30.4765C100.203 30.4943 100.215 30.5155 100.223 30.5388C100.23 30.562 100.232 30.5866 100.229 30.6108C100.226 30.635 100.217 30.6582 100.204 30.6787L100.187 30.67ZM98.2703 23.9239V24.288C98.2703 24.334 98.2886 24.3781 98.3211 24.4107C98.3537 24.4432 98.3978 24.4615 98.4438 24.4615H99.3629C99.4089 24.4615 99.453 24.4432 99.4855 24.4107C99.5181 24.3781 99.5363 24.334 99.5363 24.288V23.9239C99.5363 23.8779 99.5181 23.8338 99.4855 23.8012C99.453 23.7687 99.4089 23.7504 99.3629 23.7504H98.4438C98.3993 23.7548 98.3583 23.7762 98.3292 23.8101C98.3001 23.8441 98.2852 23.8879 98.2877 23.9325L98.2703 23.9239Z" fill="white"/>
<path d="M118.578 25.6406V25.9701C118.578 26.0161 118.559 26.0602 118.527 26.0927C118.494 26.1252 118.45 26.1435 118.404 26.1435H116.453C116.42 26.1323 116.383 26.1323 116.349 26.1435C116.15 26.2909 115.95 26.421 115.751 26.5424C115.732 26.5587 115.718 26.5787 115.708 26.6011C115.697 26.6235 115.692 26.6478 115.692 26.6724C115.692 26.6971 115.697 26.7214 115.708 26.7438C115.718 26.7662 115.732 26.7862 115.751 26.8025C116.039 27.1405 116.278 27.517 116.462 27.9211C116.481 27.9622 116.515 27.9947 116.556 28.0123C116.598 28.03 116.645 28.0315 116.687 28.0165C117.46 27.6757 118.167 27.2033 118.777 26.6204C118.81 26.5886 118.853 26.5709 118.899 26.5709C118.944 26.5709 118.988 26.5886 119.02 26.6204L119.263 26.8632C119.28 26.8794 119.293 26.8989 119.303 26.9205C119.312 26.9421 119.317 26.9654 119.317 26.9889C119.317 27.0125 119.312 27.0358 119.303 27.0574C119.293 27.079 119.28 27.0985 119.263 27.1147C118.666 27.6675 117.98 28.116 117.234 28.4414C117.209 28.4535 117.188 28.471 117.171 28.4924C117.154 28.5139 117.143 28.5389 117.137 28.5656C117.131 28.5922 117.131 28.6198 117.137 28.6463C117.144 28.6729 117.156 28.6976 117.173 28.7189C117.976 29.5806 118.931 30.2862 119.991 30.7999C120.012 30.8108 120.031 30.8258 120.046 30.8441C120.061 30.8624 120.072 30.8836 120.078 30.9063C120.085 30.9291 120.087 30.9529 120.083 30.9763C120.08 30.9998 120.073 31.0224 120.06 31.0427L119.87 31.3809C119.848 31.421 119.811 31.4508 119.767 31.4638C119.723 31.4767 119.676 31.4719 119.636 31.4503C118.73 30.9607 117.908 30.3316 117.199 29.586C117.174 29.5617 117.143 29.5453 117.109 29.5391C117.074 29.5329 117.039 29.537 117.008 29.551C116.976 29.565 116.949 29.5883 116.931 29.6177C116.912 29.6471 116.903 29.6813 116.904 29.716C116.904 29.8114 116.904 29.8981 116.904 29.9848C116.952 30.5531 116.841 31.1235 116.583 31.6323C116.349 31.9792 115.803 32.1526 114.953 32.1526H114.719C114.684 32.1519 114.649 32.1409 114.62 32.1208C114.591 32.1008 114.568 32.0727 114.554 32.0399L114.45 31.7451C114.441 31.7193 114.437 31.6917 114.44 31.6644C114.444 31.6371 114.453 31.6109 114.468 31.5881C114.484 31.5652 114.504 31.5463 114.528 31.5329C114.552 31.5195 114.579 31.512 114.606 31.511H114.823C115.207 31.5549 115.593 31.4628 115.916 31.2508C116.137 30.8712 116.232 30.4306 116.184 29.9935C116.184 29.9241 116.184 29.8548 116.184 29.7941C116.185 29.7627 116.176 29.7319 116.16 29.7052C116.143 29.6785 116.12 29.6571 116.092 29.6434C116.063 29.6298 116.032 29.6245 116.001 29.6281C115.969 29.6317 115.94 29.6442 115.916 29.664C114.724 30.5247 113.396 31.1784 111.988 31.5977C111.95 31.6089 111.911 31.6073 111.874 31.5931C111.838 31.579 111.808 31.5531 111.788 31.5196L111.606 31.1988C111.595 31.1757 111.589 31.1504 111.588 31.1247C111.587 31.099 111.592 31.0735 111.602 31.0497C111.612 31.0259 111.626 31.0046 111.645 30.9869C111.664 30.9693 111.686 30.9558 111.71 30.9473C113.239 30.5232 114.672 29.811 115.933 28.8489C115.961 28.8287 115.982 28.8003 115.993 28.7676C116.004 28.735 116.004 28.6997 115.994 28.6668C115.942 28.5107 115.89 28.3633 115.829 28.2159C115.82 28.1912 115.805 28.169 115.785 28.1512C115.766 28.1334 115.742 28.1206 115.717 28.1138C115.691 28.107 115.665 28.1065 115.639 28.1122C115.613 28.1178 115.589 28.1296 115.569 28.1466C114.516 28.8909 113.343 29.4483 112.1 29.7941C112.063 29.807 112.023 29.8062 111.986 29.7919C111.95 29.7776 111.919 29.7507 111.901 29.716L111.719 29.3952C111.708 29.3721 111.701 29.3468 111.701 29.3211C111.7 29.2954 111.705 29.2699 111.714 29.2461C111.724 29.2224 111.739 29.2009 111.758 29.1833C111.776 29.1656 111.799 29.1522 111.823 29.1437C113.063 28.8312 114.238 28.2997 115.291 27.5743C115.307 27.5589 115.319 27.5407 115.327 27.5206C115.336 27.5005 115.34 27.479 115.34 27.4572C115.34 27.4354 115.336 27.4139 115.327 27.3938C115.319 27.3737 115.307 27.3555 115.291 27.3401C115.227 27.2441 115.157 27.1514 115.083 27.0627C115.06 27.0306 115.027 27.0077 114.989 26.9981C114.951 26.9886 114.91 26.993 114.875 27.0106L114.771 27.0627C113.951 27.437 113.105 27.7501 112.239 27.9991C112.202 28.0103 112.162 28.0087 112.126 27.9946C112.09 27.9804 112.059 27.9546 112.04 27.9211L111.866 27.6436C111.852 27.6199 111.843 27.5931 111.841 27.5653C111.839 27.5376 111.844 27.5098 111.855 27.4843C111.866 27.4588 111.883 27.4364 111.905 27.4188C111.926 27.4013 111.952 27.3891 111.979 27.3835C112.767 27.2026 113.537 26.9471 114.277 26.6204L114.667 26.4383C114.703 26.4211 114.731 26.3923 114.748 26.3567C114.765 26.321 114.769 26.2807 114.76 26.2423C114.751 26.2039 114.729 26.1697 114.698 26.1454C114.667 26.1212 114.628 26.1083 114.589 26.1088H112.855C112.809 26.1088 112.765 26.0905 112.732 26.058C112.7 26.0255 112.681 25.9814 112.681 25.9354V25.6059C112.681 25.5599 112.7 25.5158 112.732 25.4833C112.765 25.4507 112.809 25.4325 112.855 25.4325H118.378C118.406 25.4275 118.435 25.4296 118.462 25.4384C118.489 25.4473 118.514 25.4627 118.534 25.4833C118.553 25.5039 118.568 25.529 118.575 25.5564C118.583 25.5838 118.584 25.6128 118.578 25.6406ZM116.219 23.8023H119.592C119.638 23.8023 119.682 23.8206 119.715 23.8531C119.747 23.8856 119.766 23.9297 119.766 23.9757V25.3891C119.766 25.4351 119.747 25.4792 119.715 25.5118C119.682 25.5443 119.638 25.5625 119.592 25.5625H119.245C119.199 25.5625 119.155 25.5443 119.123 25.5118C119.09 25.4792 119.072 25.4351 119.072 25.3891V24.6521C119.072 24.6061 119.054 24.562 119.021 24.5295C118.989 24.4969 118.945 24.4787 118.899 24.4787H112.378C112.332 24.4787 112.288 24.4969 112.255 24.5295C112.223 24.562 112.204 24.6061 112.204 24.6521V25.3891C112.204 25.4351 112.186 25.4792 112.154 25.5118C112.121 25.5443 112.077 25.5625 112.031 25.5625H111.684C111.638 25.5625 111.594 25.5443 111.562 25.5118C111.529 25.4792 111.511 25.4351 111.511 25.3891V23.9757C111.511 23.9297 111.529 23.8856 111.562 23.8531C111.594 23.8206 111.638 23.8023 111.684 23.8023H115.153C115.181 23.8027 115.209 23.7962 115.234 23.7834C115.259 23.7705 115.281 23.7518 115.297 23.7287C115.313 23.7056 115.323 23.679 115.327 23.651C115.331 23.623 115.327 23.5946 115.317 23.5682C115.265 23.4295 115.205 23.2907 115.153 23.1693C115.14 23.1459 115.133 23.1197 115.132 23.093C115.132 23.0663 115.138 23.0399 115.149 23.016C115.161 22.9921 115.179 22.9715 115.201 22.9559C115.222 22.9403 115.248 22.9302 115.274 22.9265L115.638 22.8658C115.677 22.8617 115.716 22.8694 115.75 22.888C115.784 22.9066 115.812 22.9352 115.829 22.9699C115.907 23.1867 115.994 23.4208 116.072 23.6809C116.082 23.7134 116.101 23.7421 116.127 23.7637C116.153 23.7853 116.185 23.7987 116.219 23.8023Z" fill="white"/>
<path d="M6.32992 3.32997C6.09319 2.92504 5.97036 2.46364 5.97441 1.99461C5.96319 1.64294 6.05921 1.29618 6.2497 1.00037C6.4402 0.704557 6.71616 0.473694 7.04096 0.338414H1.83827C1.52157 0.336442 1.20993 0.417899 0.934705 0.574589C0.659476 0.73128 0.43036 0.957671 0.270398 1.23101C0.110437 1.50435 0.0252711 1.81501 0.0234668 2.13171C0.0216625 2.44841 0.103283 2.75998 0.260119 3.03513L8.48037 17.2732C8.6376 17.5431 8.86288 17.767 9.13371 17.9227C9.40454 18.0784 9.71145 18.1603 10.0238 18.1603C10.3362 18.1603 10.6431 18.0784 10.914 17.9227C11.1848 17.767 11.4101 17.5431 11.5673 17.2732L11.7841 16.909L12.946 14.8626L6.32992 3.32997Z" fill="white"/>
<path d="M15.4171 17.2901C15.5726 17.5622 15.7972 17.7884 16.0683 17.9457C16.3393 18.1031 16.6472 18.1859 16.9606 18.1859C17.274 18.1859 17.5818 18.1031 17.8529 17.9457C18.1239 17.7884 18.3486 17.5622 18.504 17.2901C18.6107 17.1071 18.6669 16.8992 18.6669 16.6875C18.6669 16.4757 18.6107 16.2677 18.504 16.0848L12.0354 4.96839C11.9436 4.83359 11.8917 4.67566 11.8857 4.51271C11.8796 4.34976 11.9196 4.1884 12.0011 4.04716C12.0826 3.90592 12.2022 3.7905 12.3463 3.71418C12.4904 3.63787 12.6531 3.60373 12.8158 3.61569H21.0707C21.2333 3.60373 21.396 3.63787 21.5401 3.71418C21.6842 3.7905 21.8039 3.90592 21.8854 4.04716C21.9668 4.1884 22.0069 4.34976 22.0008 4.51271C21.9947 4.67566 21.9429 4.83359 21.8511 4.96839L19.2498 9.41669C19.1091 9.66375 19.0352 9.94315 19.0352 10.2274C19.0352 10.5117 19.1091 10.7911 19.2498 11.0382C19.3926 11.2829 19.597 11.4859 19.8427 11.6269C20.0884 11.768 20.3668 11.8423 20.6501 11.8423C20.9335 11.8423 21.2118 11.768 21.4576 11.6269C21.7033 11.4859 21.9077 11.2829 22.0505 11.0382L26.6549 3.04339C26.8107 2.77016 26.8923 2.46096 26.8916 2.14646C26.8909 1.83195 26.8081 1.52308 26.6512 1.2505C26.4943 0.977918 26.2689 0.751115 25.9972 0.592567C25.7256 0.434019 25.4173 0.349255 25.1028 0.34668H8.93109C6.46848 0.34668 6.93673 2.66186 7.19686 3.06941L15.4171 17.2901Z" fill="white"/>
</g>
<defs>
<clipPath id="clip0_291_30">
<rect width="120" height="32.2306" fill="white"/>
</clipPath>
</defs>
</svg>
